<svg xmlns:dc="http://purl.org/dc/elements/1.1/" xmlns:cc="http://creativecommons.org/ns#" xmlns:rdf="http://www.w3.org/1999/02/22-rdf-syntax-ns#" xmlns:svg="http://www.w3.org/2000/svg" xmlns="http://www.w3.org/2000/svg" xmlns:sodipodi="http://sodipodi.sourceforge.net/DTD/sodipodi-0.dtd" xmlns:inkscape="http://www.inkscape.org/namespaces/inkscape" version="1.1" x="0px" y="0px" viewBox="0 0 100 125"><g transform="translate(0,-952.36218)"><path style="text-indent:0;text-transform:none;direction:ltr;block-progression:tb;baseline-shift:baseline;color:#000000;enable-background:accumulate;" d="m 56,957.36194 c -5.4992,0 -10,4.5008 -10,10 0,3.8056 2.1624,7.1552 5.3125,8.8438 l -5.4687,17.2187 c -0.2789,-0.017 -0.5609,-0.062 -0.8438,-0.062 -4.2099,0 -7.9606,1.9158 -10.5312,4.875 l -12.7813,-11.2188 c 0.8295,-1.3609 1.3125,-2.9557 1.3125,-4.6562 0,-4.9469 -4.0531,-9 -9,-9 -4.9469,0 -9,4.0531 -9,9 0,4.9469 4.0531,9 9,9 1.7902,0 3.4686,-0.5256 4.875,-1.4375 l 13.375,11.68746 c -0.7992,1.7587 -1.25,3.6989 -1.25,5.7501 0,3.1226 1.0717,6.0101 2.8125,8.3437 l -11.625,11.625 c -1.7702,-1.2186 -3.8876,-1.9688 -6.1875,-1.9688 -6.0514,0 -11,4.9485 -11,11 0,6.0514 4.9486,11 11,11 6.0514,0 11,-4.9486 11,-11 0,-2.3159 -0.7348,-4.4415 -1.9688,-6.2188 l 11.5938,-11.5937 c 2.3413,1.7611 5.2325,2.8125 8.375,2.8125 2.8503,0 5.5023,-0.8384 7.7188,-2.3125 l 5.4374,6.125 c -1.3543,1.7067 -2.1562,3.853 -2.1562,6.1875 0,5.4992 4.5008,10 10,10 5.4992,0 10,-4.5008 10,-10 0,-5.4992 -4.5008,-10 -10,-10 -1.7185,0 -3.3334,0.4466 -4.75,1.2188 l -5.5625,-6.2188 c 2.0509,-2.4364 3.3125,-5.5803 3.3125,-8.9999 0,-1.2768 -0.1769,-2.5107 -0.5,-3.6876 l 21.9375,-6.74996 c 1.4499,2.0779 3.8554,3.43746 6.5625,3.43746 4.3946,0 8,-3.60536 8,-7.99996 0,-4.3946 -3.6054,-8 -8,-8 -4.3946,0 -8,3.6054 -8,8 0,0.2747 0,0.5447 0.031,0.8125 l -22.1562,6.8125 c -1.6454,-2.6347 -4.1369,-4.6682 -7.0938,-5.75 l 5.375,-16.9062 c 0.2756,0.023 0.5625,0.031 0.8438,0.031 5.4992,0 10,-4.5008 10,-10 0,-5.4992 -4.5008,-10 -10,-10 z" fill="#000000" fill-opacity="1" stroke="none" marker="none" visibility="visible" display="inline" overflow="visible"/></g></svg>